<svg width="323" height="298" viewBox="0 0 323 298" fill="none" xmlns="http://www.w3.org/2000/svg">
<path d="M237.815 44.1333C242.048 39.1065 241.43 31.5563 236.082 27.7374C212.065 10.5887 183.411 0.903865 153.734 0.0601748C120.079 -0.896595 87.0927 9.57301 60.1496 29.7628C33.2065 49.9527 13.8955 78.6724 5.36355 111.242C-3.16838 143.811 -0.418238 178.31 13.1658 209.116C26.7499 239.923 50.367 265.22 80.1684 280.887C109.97 296.553 144.199 301.665 177.277 295.388C210.355 289.111 240.332 271.817 262.324 246.323C281.716 223.842 293.89 196.154 297.426 166.856C298.214 160.332 293.056 154.783 286.49 154.519C279.923 154.254 274.444 159.378 273.557 165.89C270.301 189.809 260.182 212.371 244.303 230.778C225.824 252.2 200.635 266.732 172.84 272.007C145.045 277.281 116.284 272.986 91.2422 259.821C66.2008 246.657 46.3559 225.4 34.9415 199.514C23.5271 173.629 21.2162 144.64 28.3854 117.273C35.5546 89.9053 51.7812 65.7728 74.4209 48.8077C97.0606 31.8427 124.779 23.0453 153.058 23.8493C177.357 24.5401 200.841 32.285 220.698 46.0131C226.103 49.7503 233.582 49.16 237.815 44.1333Z" fill="#38B735"/>
<path d="M298.5 46.5087L152.837 192.925L86.6272 126.372" stroke="#38B735" stroke-width="48.4553" stroke-linecap="round" stroke-linejoin="round"/>
</svg>
