<svg width="54" height="54" viewBox="0 0 54 54" fill="none" xmlns="http://www.w3.org/2000/svg">
<path d="M33.75 45H20.25M45 16.2V31.05C45 33.5703 45.0005 34.8303 44.51 35.7929C44.0786 36.6397 43.3892 37.328 42.5425 37.7595C41.5799 38.2499 40.3207 38.25 37.8004 38.25H16.2004C13.6802 38.25 12.4191 38.2499 11.4565 37.7595C10.6098 37.328 9.9219 36.6397 9.49047 35.7929C9 34.8303 9 33.5703 9 31.05V16.2C9 13.6798 9 12.4197 9.49047 11.4571C9.9219 10.6104 10.6098 9.9219 11.4565 9.49047C12.4191 9 13.6802 9 16.2004 9H37.8004C40.3207 9 41.5799 9 42.5425 9.49047C43.3892 9.9219 44.0786 10.6104 44.51 11.4571C45.0005 12.4197 45 13.6798 45 16.2ZM45 33.75V34.65C45 35.9101 45.0002 36.5402 44.755 37.0215C44.5393 37.4449 44.1946 37.789 43.7713 38.0047C43.29 38.25 42.6603 38.25 41.4002 38.25H12.6002C11.3401 38.25 10.7096 38.25 10.2283 38.0047C9.80491 37.789 9.46095 37.4449 9.24524 37.0215C9 36.5402 9 35.9101 9 34.65V33.75H45Z" stroke="#BA1200" stroke-width="2" stroke-linecap="round" stroke-linejoin="round"/>
</svg>
