<svg width="54" height="54" viewBox="0 0 54 54" fill="none" xmlns="http://www.w3.org/2000/svg">
<path d="M38.25 40.05V13.95V13.9426C38.25 11.4273 38.25 10.1688 37.76 9.20709C37.3286 8.36036 36.6392 7.6719 35.7925 7.24047C34.8299 6.75 33.5707 6.75 31.0504 6.75H22.9504C20.4302 6.75 19.1691 6.75 18.2065 7.24047C17.3598 7.6719 16.6719 8.36036 16.2405 9.20709C15.75 10.1697 15.75 11.4298 15.75 13.95V40.05C15.75 42.5703 15.75 43.8303 16.2405 44.7929C16.6719 45.6397 17.3598 46.328 18.2065 46.7595C19.1691 47.2499 20.4302 47.25 22.9504 47.25H31.0504C33.5707 47.25 34.8299 47.2499 35.7925 46.7595C36.6392 46.328 37.3286 45.6397 37.76 44.7929C38.25 43.8313 38.25 42.5727 38.25 40.0574V40.05Z" stroke="#BA1200" stroke-width="2" stroke-linecap="round" stroke-linejoin="round"/>
</svg>
