<svg width="20" height="24" viewBox="0 0 20 24" fill="none" xmlns="http://www.w3.org/2000/svg">
<path fill-rule="evenodd" clip-rule="evenodd" d="M17.8251 8.2624C17.8251 9.72765 18.2124 10.5913 19.0646 11.5865C19.7104 12.3197 19.9168 13.2609 19.9168 14.282C19.9168 15.302 19.5817 16.2702 18.9104 17.0563C18.0315 17.9986 16.792 18.6002 15.5269 18.7048C13.6938 18.8611 11.8594 18.9927 10.0007 18.9927C8.1409 18.9927 6.30772 18.914 4.47454 18.7048C3.20836 18.6002 1.96885 17.9986 1.09111 17.0563C0.419753 16.2702 0.0834961 15.302 0.0834961 14.282C0.0834961 13.2609 0.291047 12.3197 0.935732 11.5865C1.81464 10.5913 2.1764 9.72765 2.1764 8.2624V7.76536C2.1764 5.80307 2.66571 4.51995 3.67332 3.26385C5.1714 1.43199 7.57274 0.333344 9.94856 0.333344H10.0529C12.4798 0.333344 14.9588 1.48487 16.4314 3.39545C17.3868 4.6257 17.8251 5.85477 17.8251 7.76536V8.2624ZM6.58612 21.4043C6.58612 20.8168 7.12529 20.5477 7.62387 20.4326C8.2071 20.3092 11.761 20.3092 12.3442 20.4326C12.8428 20.5477 13.382 20.8168 13.382 21.4043C13.353 21.9636 13.0248 22.4595 12.5715 22.7744C11.9836 23.2327 11.2937 23.5229 10.5725 23.6275C10.1736 23.6792 9.78171 23.6803 9.39676 23.6275C8.67438 23.5229 7.98448 23.2327 7.39777 22.7732C6.94324 22.4595 6.6151 21.9636 6.58612 21.4043Z" fill="#320A28"/>
</svg>
