<svg width="25" height="24" viewBox="0 0 25 24" fill="none" xmlns="http://www.w3.org/2000/svg">
<path d="M11.6302 3.5625H13.0365C13.1615 3.5625 13.224 3.625 13.224 3.75V20.25C13.224 20.375 13.1615 20.4375 13.0365 20.4375H11.6302C11.5052 20.4375 11.4427 20.375 11.4427 20.25V3.75C11.4427 3.625 11.5052 3.5625 11.6302 3.5625Z" fill="#38B735"/>
<path d="M4.45834 11.1094H20.2083C20.3333 11.1094 20.3958 11.1719 20.3958 11.2969V12.7031C20.3958 12.8281 20.3333 12.8906 20.2083 12.8906H4.45834C4.33334 12.8906 4.27084 12.8281 4.27084 12.7031V11.2969C4.27084 11.1719 4.33334 11.1094 4.45834 11.1094Z" fill="#38B735"/>
</svg>
